<svg width="57" height="60" viewBox="0 0 57 60" fill="none" xmlns="http://www.w3.org/2000/svg">
<path d="M55.2195 33.75C55.7718 33.75 56.2195 34.1977 56.2195 34.75V44C56.2195 44.5523 55.7718 45 55.2195 45H45.9695C45.4172 45 44.9695 44.5523 44.9695 44V42.25C44.9695 41.6977 45.4172 41.25 45.9695 41.25H47.5917C48.3887 41.25 48.8395 40.3744 48.2596 39.8275C47.6831 39.2839 47.0259 38.8303 46.2878 38.4668C44.9792 37.8223 43.6023 37.5 42.157 37.5C41.1023 37.5 40.0671 37.6758 39.0515 38.0273C38.0359 38.3789 37.1375 38.8867 36.3562 39.5508C35.575 40.2148 34.9402 41.0059 34.4519 41.9238C34.1111 42.5645 33.8892 43.2576 33.7863 44.003C33.7107 44.5501 33.2718 45 32.7195 45H30.9695C30.4172 45 29.9644 44.5514 30.011 44.0011C30.119 42.7276 30.4371 41.5469 30.9656 40.459C31.6296 39.0918 32.5378 37.9004 33.6902 36.8848C34.8425 35.8691 36.1414 35.0977 37.5867 34.5703C39.032 34.043 40.5554 33.7695 42.157 33.75C43.1726 33.75 44.1687 33.8574 45.1453 34.0723C46.1218 34.2871 47.0593 34.6289 47.9578 35.0977C48.8562 35.5664 49.6863 36.1133 50.448 36.7383C51.1521 37.316 52.4695 36.8647 52.4695 35.9539V34.75C52.4695 34.1977 52.9172 33.75 53.4695 33.75H55.2195ZM44.032 56.25C45.0867 56.25 46.1121 56.0742 47.1082 55.7227C48.1042 55.3711 49.0027 54.8633 49.8035 54.1992C50.6042 53.5352 51.2488 52.7441 51.7371 51.8262C52.0779 51.1855 52.2997 50.4924 52.4027 49.747C52.4782 49.1999 52.9172 48.75 53.4695 48.75H55.2195C55.7718 48.75 56.2246 49.1986 56.1779 49.7489C56.07 51.0224 55.7518 52.2031 55.2234 53.291C54.5593 54.6582 53.6511 55.8496 52.4988 56.8652C51.3464 57.8809 50.0476 58.6523 48.6023 59.1797C47.157 59.707 45.6335 59.9805 44.032 60C43.0164 60 42.0203 59.8926 41.0437 59.6777C40.0671 59.4629 39.1296 59.1211 38.2312 58.6523C37.3328 58.1836 36.5027 57.6367 35.741 57.0117C35.0369 56.434 33.7195 56.8853 33.7195 57.7961V59C33.7195 59.5523 33.2718 60 32.7195 60H30.9695C30.4172 60 29.9695 59.5523 29.9695 59V49.75C29.9695 49.1977 30.4172 48.75 30.9695 48.75H40.2195C40.7718 48.75 41.2195 49.1977 41.2195 49.75V51.5C41.2195 52.0523 40.7718 52.5 40.2195 52.5H38.5972C37.8002 52.5 37.3495 53.3756 37.9293 53.9225C38.5058 54.4661 39.1631 54.9197 39.9011 55.2832C41.2097 55.9277 42.5867 56.25 44.032 56.25ZM37.4695 22.5C35.9265 22.5 34.4714 22.793 33.1042 23.3789C31.7371 23.9648 30.5457 24.7656 29.53 25.7812C28.5144 26.7969 27.7136 27.9883 27.1277 29.3555C26.5417 30.7227 26.239 32.1777 26.2195 33.7207C26.2195 35.5371 25.8191 37.2363 25.0183 38.8184C24.456 39.9292 23.7252 40.9197 22.8259 41.7898C22.2917 42.3066 22.3669 43.2362 22.9906 43.6404C23.364 43.8823 23.7274 44.1402 24.0808 44.4141C24.5814 44.802 25.0539 45.218 25.4983 45.6621C25.9046 46.068 25.8373 46.7315 25.3832 47.0832L23.9716 48.1766C23.555 48.4992 22.963 48.4394 22.5829 48.0745C21.6781 47.2058 20.654 46.513 19.5105 45.9961C18.0847 45.3516 16.571 45.0195 14.9695 45C13.407 45 11.9519 45.293 10.6042 45.8789C9.25659 46.4648 8.06519 47.2656 7.03003 48.2812C5.99487 49.2969 5.18433 50.498 4.59839 51.8848C4.14178 52.9654 3.86309 54.0876 3.7623 55.2512C3.71465 55.8014 3.27177 56.25 2.71948 56.25H0.969482C0.417198 56.25 -0.0341578 55.8018 0.0019873 55.2507C0.0723218 54.1783 0.256799 53.1344 0.55542 52.1191C0.946045 50.791 1.50269 49.5312 2.22534 48.3398C2.948 47.1484 3.8269 46.0938 4.86206 45.1758C5.50565 44.6051 6.19453 44.0834 6.92871 43.6108C7.55189 43.2097 7.621 42.2839 7.08973 41.7672C6.22043 40.9217 5.50717 39.9485 4.94995 38.8477C4.14917 37.2656 3.73901 35.5664 3.71948 33.75C3.71948 32.207 4.01245 30.752 4.59839 29.3848C5.18433 28.0176 5.98511 26.8262 7.00073 25.8105C8.01636 24.7949 9.20776 23.9844 10.575 23.3789C11.9421 22.7734 13.407 22.4805 14.9695 22.5C16.7664 22.5 18.4558 22.9004 20.0378 23.7012C21.1393 24.2587 22.1177 24.9772 22.973 25.8566C23.4929 26.3912 24.4273 26.3147 24.8319 25.6882C25.418 24.7806 26.0954 23.9424 26.864 23.1738C27.639 22.3988 28.4891 21.7122 29.4143 21.1139C30.0395 20.7095 30.1127 19.7771 29.5796 19.2573C28.7149 18.4141 28.005 17.4442 27.45 16.3477C26.6492 14.7656 26.239 13.0664 26.2195 11.25C26.2195 9.70703 26.5125 8.25195 27.0984 6.88477C27.6843 5.51758 28.4851 4.32617 29.5007 3.31055C30.5164 2.29492 31.7078 1.48438 33.075 0.878906C34.4421 0.273438 35.907 -0.0195312 37.4695 0C39.0125 0 40.4675 0.292969 41.8347 0.878906C43.2019 1.46484 44.3933 2.26562 45.4089 3.28125C46.4246 4.29688 47.2351 5.49805 47.8406 6.88477C48.446 8.27148 48.739 9.72656 48.7195 11.25C48.7195 13.0469 48.3191 14.7363 47.5183 16.3184C46.9623 17.4169 46.2461 18.393 45.3699 19.2467C44.834 19.7687 44.9136 20.7071 45.5433 21.1109C46.8882 21.9734 48.0641 23.0321 49.071 24.2871C50.1509 25.633 50.9799 27.1231 51.5582 28.7574C51.7773 29.3766 51.2981 30 50.6413 30H48.7253C48.3006 30 47.9264 29.7299 47.7611 29.3387C47.3989 28.4813 46.9371 27.6861 46.3757 26.9531C45.6726 26.0352 44.8621 25.2441 43.9441 24.5801C43.0261 23.916 42.0203 23.4082 40.9265 23.0566C39.8328 22.7051 38.6804 22.5195 37.4695 22.5ZM37.4695 3.75C36.4343 3.75 35.4675 3.94531 34.5691 4.33594C33.6707 4.72656 32.8699 5.26367 32.1667 5.94727C31.4636 6.63086 30.9265 7.42188 30.5554 8.32031C30.1843 9.21875 29.989 10.1953 29.9695 11.25C29.9695 12.2852 30.1648 13.252 30.5554 14.1504C30.946 15.0488 31.4832 15.8496 32.1667 16.5527C32.8503 17.2559 33.6414 17.793 34.5398 18.1641C35.4382 18.5352 36.4148 18.7305 37.4695 18.75C38.5046 18.75 39.4714 18.5547 40.3699 18.1641C41.2683 17.7734 42.0691 17.2363 42.7722 16.5527C43.4753 15.8691 44.0125 15.0781 44.3835 14.1797C44.7546 13.2812 44.95 12.3047 44.9695 11.25C44.9695 10.2148 44.7742 9.24805 44.3835 8.34961C43.9929 7.45117 43.4558 6.65039 42.7722 5.94727C42.0886 5.24414 41.2976 4.70703 40.3992 4.33594C39.5007 3.96484 38.5242 3.76953 37.4695 3.75ZM14.9695 41.25C16.0046 41.25 16.9714 41.0547 17.8699 40.6641C18.7683 40.2734 19.5691 39.7363 20.2722 39.0527C20.9753 38.3691 21.5125 37.5781 21.8835 36.6797C22.2546 35.7812 22.45 34.8047 22.4695 33.75C22.4695 32.7148 22.2742 31.7383 21.8835 30.8203C21.4929 29.9023 20.9656 29.1113 20.3015 28.4473C19.6375 27.7832 18.8367 27.2461 17.8992 26.8359C16.9617 26.4258 15.9851 26.2305 14.9695 26.25C13.9343 26.25 12.9675 26.4453 12.0691 26.8359C11.1707 27.2266 10.3699 27.7637 9.66675 28.4473C8.96362 29.1309 8.42651 29.9219 8.05542 30.8203C7.68433 31.7188 7.48901 32.6953 7.46948 33.75C7.46948 34.7852 7.66479 35.752 8.05542 36.6504C8.44604 37.5488 8.98315 38.3496 9.66675 39.0527C10.3503 39.7559 11.1414 40.293 12.0398 40.6641C12.9382 41.0352 13.9148 41.2305 14.9695 41.25Z" fill="#3E4642"/>
</svg>
