<svg width="60" height="60" viewBox="0 0 60 60" fill="none" xmlns="http://www.w3.org/2000/svg">
<path d="M27.2142 2.14288H54.2228C56.2328 2.14288 57.8614 3.77145 57.8614 5.78145V34.83C57.8614 36.8443 56.2328 38.4729 54.2228 38.4729H32.1428M13.4957 17.1472C15.4854 17.1472 17.3936 16.3568 18.8005 14.9498C20.2074 13.5429 20.9978 11.6347 20.9978 9.64503C20.9978 7.65533 20.2074 5.74713 18.8005 4.34021C17.3936 2.93329 15.4854 2.14288 13.4957 2.14288C11.506 2.14288 9.59778 2.93329 8.19086 4.34021C6.78393 5.74713 5.99353 7.65533 5.99353 9.64503C5.99353 11.6347 6.78393 13.5429 8.19086 14.9498C9.59778 16.3568 11.506 17.1472 13.4957 17.1472Z" stroke="#3E4642" stroke-width="4.28571" stroke-linecap="round" stroke-linejoin="round"/>
<path d="M38.5714 23.6872C38.5714 21.2572 36.6 19.2858 34.17 19.2858H13.4957C10.4851 19.2869 7.59808 20.4834 5.46925 22.6122C3.34042 24.741 2.14396 27.628 2.14282 30.6386V40.7143H7.00711L8.63139 57.8572H18.36L22.0971 28.0929H34.17C36.6 28.0929 38.5714 26.1215 38.5714 23.6872Z" stroke="#3E4642" stroke-width="4.28571" stroke-linecap="round" stroke-linejoin="round"/>
</svg>
