<svg width="85" height="59" viewBox="0 0 85 59" fill="none" xmlns="http://www.w3.org/2000/svg">
<path d="M78.6112 0H2C0.895431 0 0 0.89543 0 2V55.1772C0 56.7916 1.81418 57.7407 3.14044 56.8202L79.7516 3.64299C81.3613 2.52566 80.5707 0 78.6112 0Z" fill="#F3F5F4"/>
<path d="M49.25 29.3223C49.25 28.77 48.8023 28.3223 48.25 28.3223H39.25C38.6977 28.3223 38.25 27.8746 38.25 27.3223V18.3223C38.25 17.77 37.8023 17.3223 37.25 17.3223H22.75C22.1977 17.3223 21.75 17.77 21.75 18.3223V49.3223C21.75 49.8746 22.1977 50.3223 22.75 50.3223H48.25C48.8023 50.3223 49.25 49.8746 49.25 49.3223V29.3223ZM45.6971 25.5723C46.588 25.5723 47.0342 24.4951 46.4042 23.8652L42.7071 20.168C42.0771 19.5381 41 19.9842 41 20.8752V24.5723C41 25.1246 41.4477 25.5723 42 25.5723H45.6971ZM20.375 14.5723H40.5858C40.851 14.5723 41.1054 14.6776 41.2929 14.8652L51.7071 25.2794C51.8946 25.4669 52 25.7213 52 25.9865V51.6973C52 52.0619 51.8551 52.4117 51.5973 52.6695C51.3394 52.9274 50.9897 53.0723 50.625 53.0723H20.375C20.0103 53.0723 19.6606 52.9274 19.4027 52.6695C19.1449 52.4117 19 52.0619 19 51.6973V15.9473C19 15.5826 19.1449 15.2329 19.4027 14.975C19.6606 14.7171 20.0103 14.5723 20.375 14.5723ZM27.25 34.8223C27.25 34.27 27.6977 33.8223 28.25 33.8223H42.75C43.3023 33.8223 43.75 34.27 43.75 34.8223V35.5723C43.75 36.1246 43.3023 36.5723 42.75 36.5723H28.25C27.6977 36.5723 27.25 36.1246 27.25 35.5723V34.8223ZM27.25 26.5723C27.25 26.02 27.6977 25.5723 28.25 25.5723H33.125C33.6773 25.5723 34.125 26.02 34.125 26.5723V27.3223C34.125 27.8746 33.6773 28.3223 33.125 28.3223H28.25C27.6977 28.3223 27.25 27.8746 27.25 27.3223V26.5723ZM27.25 43.0723C27.25 42.52 27.6977 42.0723 28.25 42.0723H42.75C43.3023 42.0723 43.75 42.52 43.75 43.0723V43.8223C43.75 44.3746 43.3023 44.8223 42.75 44.8223H28.25C27.6977 44.8223 27.25 44.3746 27.25 43.8223V43.0723Z" fill="#8E98A8"/>
</svg>
