<svg width="44" height="44" viewBox="0 0 44 44" fill="none" xmlns="http://www.w3.org/2000/svg">
<path d="M28.5576 37.8398L24.4484 33.7307L22.2114 35.9677L28.5576 42.3138L41.2499 29.6215L39.0129 27.3845L28.5576 37.8398Z" fill="#3E4642"/>
<path d="M19.0386 24.2114C20.791 24.2114 22.2116 22.7908 22.2116 21.0384C22.2116 19.2859 20.791 17.8653 19.0386 17.8653C17.2861 17.8653 15.8655 19.2859 15.8655 21.0384C15.8655 22.7908 17.2861 24.2114 19.0386 24.2114Z" fill="#3E4642"/>
<path d="M19.0385 30.5576C17.1558 30.5576 15.3153 29.9993 13.7499 28.9533C12.1845 27.9074 10.9644 26.4207 10.2439 24.6813C9.52341 22.9418 9.3349 21.0278 9.7022 19.1813C10.0695 17.3347 10.9761 15.6386 12.3074 14.3073C13.6387 12.976 15.3349 12.0694 17.1814 11.7021C19.028 11.3348 20.942 11.5233 22.6814 12.2438C24.4208 12.9643 25.9075 14.1844 26.9535 15.7498C27.9995 17.3152 28.5578 19.1557 28.5578 21.0384C28.5548 23.5622 27.551 25.9817 25.7664 27.7663C23.9818 29.5508 21.5623 30.5547 19.0385 30.5576ZM19.0385 14.6922C17.7834 14.6922 16.5564 15.0644 15.5128 15.7618C14.4692 16.4591 13.6558 17.4502 13.1754 18.6098C12.6951 19.7694 12.5694 21.0454 12.8143 22.2765C13.0592 23.5075 13.6636 24.6383 14.5511 25.5258C15.4386 26.4133 16.5694 27.0177 17.8004 27.2626C19.0315 27.5075 20.3075 27.3818 21.4671 26.9015C22.6267 26.4212 23.6178 25.6078 24.3152 24.5641C25.0125 23.5205 25.3847 22.2936 25.3847 21.0384C25.3826 19.3559 24.7133 17.743 23.5236 16.5533C22.3339 15.3636 20.721 14.6943 19.0385 14.6922Z" fill="#3E4642"/>
<path d="M38.0769 21.0383C38.0769 17.2729 36.9603 13.592 34.8684 10.4611C32.7764 7.33029 29.803 4.89008 26.3242 3.4491C22.8454 2.00813 19.0174 1.6311 15.3243 2.36571C11.6312 3.10031 8.23882 4.91355 5.57624 7.57612C2.91367 10.2387 1.10043 13.631 0.365827 17.3241C-0.368776 21.0172 0.0082491 24.8452 1.44923 28.3241C2.8902 31.8029 5.33041 34.7763 8.46127 36.8682C11.5921 38.9602 15.273 40.0768 19.0385 40.0768V36.9037C15.9006 36.9037 12.8332 35.9732 10.2241 34.2299C7.61509 32.4866 5.58158 30.0088 4.38077 27.1098C3.17995 24.2107 2.86577 21.0207 3.47793 17.9432C4.0901 14.8656 5.60114 12.0386 7.81995 9.81983C10.0388 7.60101 12.8657 6.08998 15.9433 5.47781C19.0209 4.86564 22.2109 5.17983 25.1099 6.38064C28.0089 7.58146 30.4867 9.61496 32.2301 12.224C33.9734 14.8331 34.9039 17.9005 34.9039 21.0383H38.0769Z" fill="#3E4642"/>
</svg>
