<svg width="85" height="59" viewBox="0 0 85 59" fill="none" xmlns="http://www.w3.org/2000/svg">
<path d="M78.6112 0H2C0.895431 0 0 0.89543 0 2V55.1772C0 56.7916 1.81418 57.7407 3.14044 56.8202L79.7516 3.64299C81.3613 2.52566 80.5707 0 78.6112 0Z" fill="#F3F5F4"/>
<path d="M22.0714 19.6625V23.25H31.5499C31.957 23.2496 32.3474 23.0874 32.6351 22.799L35.768 19.6625L32.6351 16.526C32.3474 16.2376 31.957 16.0754 31.5499 16.075H25.6548C24.7044 16.075 23.793 16.453 23.121 17.1258C22.449 17.7985 22.0714 18.711 22.0714 19.6625ZM19 19.6625C19 17.8955 19.7011 16.2009 20.9491 14.9514C22.1971 13.7019 23.8898 13 25.6548 13H31.5499C32.771 13.0005 33.9421 13.4864 34.8056 14.3509L38.5793 18.125H53.2997C55.0643 18.1255 56.7564 18.8277 58.004 20.0771C59.2515 21.3265 59.9524 23.0209 59.9524 24.7875V34.525C59.0663 33.8597 57.9886 33.5 56.881 33.5V24.7875C56.881 23.836 56.5034 22.9235 55.8314 22.2508C55.1594 21.578 54.248 21.2 53.2976 21.2H38.5752L34.8076 24.974C34.3798 25.4024 33.8719 25.7421 33.3129 25.9739C32.754 26.2057 32.1549 26.325 31.5499 26.325H22.0714V43.2375C22.0714 45.2178 23.6768 46.825 25.6548 46.825H37.5125C37.4579 47.1598 37.4299 47.5015 37.4286 47.85C37.4286 48.5224 37.5023 49.2153 37.6661 49.9H25.6548C23.8898 49.9 22.1971 49.1981 20.9491 47.9486C19.7011 46.6991 19 45.0045 19 43.2375V19.6625ZM46.6429 41.7C47.729 41.7 48.7706 41.268 49.5386 40.4991C50.3066 39.7302 50.7381 38.6874 50.7381 37.6C50.7381 36.5126 50.3066 35.4698 49.5386 34.7009C48.7706 33.932 47.729 33.5 46.6429 33.5C45.5567 33.5 44.5151 33.932 43.7471 34.7009C42.9791 35.4698 42.5476 36.5126 42.5476 37.6C42.5476 38.6874 42.9791 39.7302 43.7471 40.4991C44.5151 41.268 45.5567 41.7 46.6429 41.7ZM46.6429 54C51.8991 54 53.8095 50.884 53.8095 47.85C53.8095 46.7626 53.3781 45.7198 52.6101 44.9509C51.8421 44.182 50.8004 43.75 49.7143 43.75H43.5714C42.4853 43.75 41.4437 44.182 40.6757 44.9509C39.9077 45.7198 39.4762 46.7626 39.4762 47.85C39.4762 50.884 41.3866 54 46.6429 54ZM54.8477 51.9049C55.1671 51.9336 55.5036 51.9486 55.8571 51.95C60.3619 51.95 62 49.4572 62 47.03C62 46.1601 61.6548 45.3258 61.0404 44.7107C60.426 44.0956 59.5927 43.75 58.7238 43.75H54.2928C55.2654 44.8365 55.8571 46.2756 55.8571 47.85C55.8571 49.1948 55.5623 50.6175 54.8477 51.9049ZM59.9524 38.625C59.9524 39.4405 59.6288 40.2227 59.0528 40.7994C58.4768 41.376 57.6955 41.7 56.881 41.7C56.0664 41.7 55.2851 41.376 54.7091 40.7994C54.1331 40.2227 53.8095 39.4405 53.8095 38.625C53.8095 37.8095 54.1331 37.0273 54.7091 36.4506C55.2851 35.874 56.0664 35.55 56.881 35.55C57.6955 35.55 58.4768 35.874 59.0528 36.4506C59.6288 37.0273 59.9524 37.8095 59.9524 38.625Z" fill="#8E98A8"/>
</svg>
