<svg width="44" height="44" viewBox="0 0 44 44" fill="none" xmlns="http://www.w3.org/2000/svg">
<path d="M16.9124 41.0649C15.793 41.1825 14.6683 41.2443 13.5427 41.25C12.3419 41.25 12.0596 41.1629 11.0888 41.0649C9.83299 40.9365 8.88883 39.9099 8.78799 38.6513L8.10324 30.1034C7.34791 30.0685 5.75291 30.03 5.16258 29.9934C3.69408 29.9008 2.59774 28.6321 2.76641 27.17C3.15683 23.8409 3.88254 20.5596 4.93249 17.3764C5.40091 15.9647 6.61916 14.9875 8.10233 14.8647C9.35724 14.7584 11.1447 14.6667 13.5427 14.6667C15.9407 14.6667 17.7282 14.7584 18.9822 14.8638C20.4636 14.9866 21.6827 15.9638 22.1512 17.3754C22.6532 18.8953 23.0811 20.4387 23.4336 22M26.5832 26.5834C26.7739 25.6291 27.1562 24.5795 27.4907 23.7674C27.8602 22.869 28.6338 22.2044 29.5991 22.0899C30.1194 22.0301 30.6428 22.0001 31.1666 22C31.7688 22 32.295 22.0376 32.7341 22.0899C33.6993 22.2044 34.473 22.869 34.8424 23.7674C35.177 24.5795 35.5592 25.6282 35.7499 26.5834" stroke="#3E4642" stroke-width="2.75" stroke-linecap="round" stroke-linejoin="round"/>
<path d="M19.5002 8.70833C19.5002 10.2886 18.8724 11.8041 17.755 12.9215C16.6376 14.0389 15.1221 14.6667 13.5418 14.6667C11.9616 14.6667 10.4461 14.0389 9.32865 12.9215C8.21125 11.8041 7.5835 10.2886 7.5835 8.70833C7.5835 7.12809 8.21125 5.61256 9.32865 4.49516C10.4461 3.37775 11.9616 2.75 13.5418 2.75C15.1221 2.75 16.6376 3.37775 17.755 4.49516C18.8724 5.61256 19.5002 7.12809 19.5002 8.70833ZM21.2849 29.4708C21.4123 28.1371 22.3693 27.1003 23.7003 26.9399C25.1908 26.7593 27.5687 26.5833 31.1666 26.5833C34.7645 26.5833 37.1433 26.7593 38.6328 26.9399C39.9638 27.1003 40.9208 28.1371 41.0482 29.4708C41.1537 30.5864 41.2499 32.0971 41.2499 33.9167C41.2499 35.7363 41.1537 37.2469 41.0482 38.3625C40.9208 39.6962 39.9638 40.733 38.6328 40.8934C37.1423 41.074 34.7645 41.25 31.1666 41.25C27.5687 41.25 25.1899 41.0731 23.7003 40.8934C22.3693 40.733 21.4123 39.6962 21.2849 38.3625C21.1485 36.8845 21.0812 35.4009 21.0832 33.9167C21.0832 32.0971 21.1795 30.5864 21.2849 29.4708Z" stroke="#3E4642" stroke-width="2.75" stroke-linecap="round" stroke-linejoin="round"/>
</svg>
