<svg width="85" height="59" viewBox="0 0 85 59" fill="none" xmlns="http://www.w3.org/2000/svg">
<path d="M78.6112 0H2C0.895431 0 0 0.89543 0 2V55.1772C0 56.7916 1.81418 57.7407 3.14044 56.8202L79.7516 3.64299C81.3613 2.52566 80.5707 0 78.6112 0Z" fill="#F3F5F4"/>
<path d="M39.2653 17.288V29.6888C39.2653 31.9726 35.1007 33.8224 29.9647 33.8224C24.8287 33.8224 20.6641 31.9726 20.6641 29.6888V17.288" stroke="#8E98A8" stroke-width="2.5" stroke-linecap="round" stroke-linejoin="round"/>
<path d="M39.2653 23.4884C39.2653 25.7722 35.1007 27.622 29.9647 27.622C24.8287 27.622 20.6641 25.7722 20.6641 23.4884M49.5993 15.2212H55.7997C56.896 15.2212 57.9474 15.6567 58.7226 16.4319C59.4978 17.2071 59.9333 18.2585 59.9333 19.3548V25.5552M33.0649 52.4236H26.8645C25.7682 52.4236 24.7168 51.9881 23.9416 51.2129C23.1664 50.4377 22.7309 49.3863 22.7309 48.29V42.0896M39.2653 17.288C39.2653 19.5718 35.1007 21.4216 29.9647 21.4216C24.8287 21.4216 20.6641 19.5718 20.6641 17.288C20.6641 15.0041 24.8287 13.1544 29.9647 13.1544C35.1007 13.1544 39.2653 15.0041 39.2653 17.288Z" stroke="#8E98A8" stroke-width="2.5" stroke-linecap="round" stroke-linejoin="round"/>
<path d="M52.6995 44.1563C55.5531 44.1563 57.8665 41.8429 57.8665 38.9893C57.8665 36.1356 55.5531 33.8223 52.6995 33.8223C49.8458 33.8223 47.5325 36.1356 47.5325 38.9893C47.5325 41.8429 49.8458 44.1563 52.6995 44.1563Z" stroke="#8E98A8" stroke-width="2.5" stroke-linecap="round" stroke-linejoin="round"/>
<path d="M62.0001 54.4904H43.3989C43.3989 53.2691 43.6395 52.0596 44.1069 50.9312C44.5743 49.8028 45.2594 48.7775 46.123 47.9139C46.9867 47.0503 48.0119 46.3652 49.1403 45.8978C50.2687 45.4304 51.4782 45.1898 52.6995 45.1898C53.9209 45.1898 55.1303 45.4304 56.2587 45.8978C57.3871 46.3652 58.4124 47.0503 59.276 47.9139C60.1397 48.7775 60.8248 49.8028 61.2922 50.9312C61.7596 52.0596 62.0001 53.2691 62.0001 54.4904Z" stroke="#8E98A8" stroke-width="2.5" stroke-linecap="round" stroke-linejoin="round"/>
</svg>
