<svg width="85" height="59" viewBox="0 0 85 59" fill="none" xmlns="http://www.w3.org/2000/svg">
<path d="M78.6112 0H2C0.895431 0 0 0.89543 0 2V55.1772C0 56.7916 1.81418 57.7407 3.14044 56.8202L79.7516 3.64299C81.3613 2.52566 80.5707 0 78.6112 0Z" fill="#F3F5F4"/>
<path d="M27.25 42.0723C27.25 41.3429 27.5397 40.6434 28.0555 40.1277C28.5712 39.612 29.2707 39.3223 30 39.3223C30.7293 39.3223 31.4288 39.612 31.9445 40.1277C32.4603 40.6434 32.75 41.3429 32.75 42.0723V44.8223C32.75 45.5516 32.4603 46.2511 31.9445 46.7668C31.4288 47.2825 30.7293 47.5723 30 47.5723C29.2707 47.5723 28.5712 47.2825 28.0555 46.7668C27.5397 46.2511 27.25 45.5516 27.25 44.8223V42.0723ZM43.75 31.0723C43.75 30.3429 44.0397 29.6434 44.5555 29.1277C45.0712 28.612 45.7707 28.3223 46.5 28.3223C47.2293 28.3223 47.9288 28.612 48.4445 29.1277C48.9603 29.6434 49.25 30.3429 49.25 31.0723V44.8223C49.25 45.5516 48.9603 46.2511 48.4445 46.7668C47.9288 47.2825 47.2293 47.5723 46.5 47.5723C45.7707 47.5723 45.0712 47.2825 44.5555 46.7668C44.0397 46.2511 43.75 45.5516 43.75 44.8223V31.0723ZM35.5 36.5723C35.5 35.8429 35.7897 35.1434 36.3055 34.6277C36.8212 34.112 37.5207 33.8223 38.25 33.8223C38.9793 33.8223 39.6788 34.112 40.1945 34.6277C40.7103 35.1434 41 35.8429 41 36.5723V44.8223C41 45.5516 40.7103 46.2511 40.1945 46.7668C39.6788 47.2825 38.9793 47.5723 38.25 47.5723C37.5207 47.5723 36.8212 47.2825 36.3055 46.7668C35.7897 46.2511 35.5 45.5516 35.5 44.8223V36.5723Z" fill="#8E98A8"/>
<path d="M27.25 15.9473H24.5C23.0413 15.9473 21.6424 16.5267 20.6109 17.5582C19.5795 18.5896 19 19.9886 19 21.4473V50.3223C19 51.781 19.5795 53.1799 20.6109 54.2114C21.6424 55.2428 23.0413 55.8223 24.5 55.8223H52C53.4587 55.8223 54.8576 55.2428 55.8891 54.2114C56.9205 53.1799 57.5 51.781 57.5 50.3223V21.4473C57.5 19.9886 56.9205 18.5896 55.8891 17.5582C54.8576 16.5267 53.4587 15.9473 52 15.9473H49.25V18.6973H52C52.7293 18.6973 53.4288 18.987 53.9445 19.5027C54.4603 20.0184 54.75 20.7179 54.75 21.4473V50.3223C54.75 51.0516 54.4603 51.7511 53.9445 52.2668C53.4288 52.7825 52.7293 53.0723 52 53.0723H24.5C23.7707 53.0723 23.0712 52.7825 22.5555 52.2668C22.0397 51.7511 21.75 51.0516 21.75 50.3223V21.4473C21.75 20.7179 22.0397 20.0184 22.5555 19.5027C23.0712 18.987 23.7707 18.6973 24.5 18.6973H27.25V15.9473Z" fill="#8E98A8"/>
<path d="M42.375 14.5723C42.7397 14.5723 43.0894 14.7171 43.3473 14.975C43.6051 15.2329 43.75 15.5826 43.75 15.9473V18.6973C43.75 19.0619 43.6051 19.4117 43.3473 19.6695C43.0894 19.9274 42.7397 20.0723 42.375 20.0723H34.125C33.7603 20.0723 33.4106 19.9274 33.1527 19.6695C32.8949 19.4117 32.75 19.0619 32.75 18.6973V15.9473C32.75 15.5826 32.8949 15.2329 33.1527 14.975C33.4106 14.7171 33.7603 14.5723 34.125 14.5723H42.375ZM34.125 11.8223C33.031 11.8223 31.9818 12.2569 31.2082 13.0305C30.4346 13.804 30 14.8532 30 15.9473V18.6973C30 19.7913 30.4346 20.8405 31.2082 21.6141C31.9818 22.3877 33.031 22.8223 34.125 22.8223H42.375C43.469 22.8223 44.5182 22.3877 45.2918 21.6141C46.0654 20.8405 46.5 19.7913 46.5 18.6973V15.9473C46.5 14.8532 46.0654 13.804 45.2918 13.0305C44.5182 12.2569 43.469 11.8223 42.375 11.8223H34.125Z" fill="#8E98A8"/>
</svg>
