<svg width="85" height="59" viewBox="0 0 85 59" fill="none" xmlns="http://www.w3.org/2000/svg">
<path d="M78.6112 0H2C0.895431 0 0 0.89543 0 2V55.1772C0 56.7916 1.81418 57.7407 3.14044 56.8202L79.7516 3.64299C81.3613 2.52566 80.5707 0 78.6112 0Z" fill="#F3F5F4"/>
<path d="M36.7058 51.2054H21.001V49.502C21.022 47.4922 21.4701 45.5099 22.3157 43.6866C23.1613 41.8632 24.3849 40.2406 25.9055 38.9263C27.4261 37.612 29.2088 36.6361 31.1354 36.0633C33.0619 35.4906 35.0882 35.3341 37.0798 35.6043M35.1438 29.2054C37.2277 29.2054 39.2262 28.3776 40.6997 26.9041C42.1732 25.4306 43.001 23.4321 43.001 21.3483C43.001 19.2644 42.1732 17.266 40.6997 15.7925C39.2262 14.319 37.2277 13.4911 35.1438 13.4911C33.06 13.4911 31.0615 14.319 29.588 15.7925C28.1145 17.266 27.2867 19.2644 27.2867 21.3483C27.2867 23.4321 28.1145 25.4306 29.588 26.9041C31.0615 28.3776 33.06 29.2054 35.1438 29.2054ZM48.9944 33.9197C48.5776 33.9197 48.1779 34.0853 47.8832 34.38C47.5885 34.6747 47.423 35.0744 47.423 35.4911V39.9131H42.9978C42.5811 39.9131 42.1814 40.0787 41.8867 40.3734C41.592 40.6681 41.4264 41.0678 41.4264 41.4846V46.5917C41.4264 47.0085 41.592 47.4082 41.8867 47.7029C42.1814 47.9976 42.5811 48.1631 42.9978 48.1631H47.4198V52.582C47.4198 52.9988 47.5854 53.3985 47.8801 53.6932C48.1748 53.9879 48.5745 54.1534 48.9913 54.1534H54.0953C54.512 54.1534 54.9117 53.9879 55.2064 53.6932C55.5011 53.3985 55.6667 52.9988 55.6667 52.582V48.1631H60.0887C60.5055 48.1631 60.9052 47.9976 61.1999 47.7029C61.4946 47.4082 61.6601 47.0085 61.6601 46.5917V41.4846C61.6601 41.0678 61.4946 40.6681 61.1999 40.3734C60.9052 40.0787 60.5055 39.9131 60.0887 39.9131H55.6698V35.488C55.6698 35.0712 55.5043 34.6715 55.2096 34.3768C54.9149 34.0821 54.5152 33.9166 54.0984 33.9166L48.9944 33.9197Z" stroke="#8E98A8" stroke-width="3.5" stroke-linecap="round" stroke-linejoin="round"/>
</svg>
