<svg width="85" height="59" viewBox="0 0 85 59" fill="none" xmlns="http://www.w3.org/2000/svg">
<path d="M78.6112 0H2C0.895431 0 0 0.89543 0 2V55.1772C0 56.7916 1.81418 57.7407 3.14044 56.8202L79.7516 3.64299C81.3613 2.52566 80.5707 0 78.6112 0Z" fill="#F3F5F4"/>
<path d="M39.7207 49.5743H21.9601C21.175 49.5743 20.4221 49.2625 19.867 48.7073C19.3119 48.1522 19 47.3993 19 46.6142V20.9601C19 20.175 19.3119 19.4221 19.867 18.867C20.4221 18.3119 21.175 18 21.9601 18H55.5078C56.2929 18 57.0458 18.3119 57.6009 18.867C58.1561 19.4221 58.4679 20.175 58.4679 20.9601V34.7157" stroke="#8E98A8" stroke-width="3" stroke-linecap="round" stroke-linejoin="round"/>
<path d="M19 20.9601C19 20.175 19.3119 19.4221 19.867 18.867C20.4221 18.3119 21.175 18 21.9601 18H55.5078C56.2929 18 57.0458 18.3119 57.6009 18.867C58.1561 19.4221 58.4679 20.175 58.4679 20.9601V29.8404H19V20.9601Z" stroke="#8E98A8" stroke-width="3"/>
<path d="M46.6274 44.6408H58.4678M52.5476 38.7206V50.561" stroke="#8E98A8" stroke-width="3" stroke-linecap="round" stroke-linejoin="round"/>
<path d="M22.9468 23.9201C22.9468 22.8302 23.8303 21.9467 24.9202 21.9467C26.01 21.9467 26.8936 22.8302 26.8936 23.9201C26.8936 25.01 26.01 25.8935 24.9202 25.8935C23.8303 25.8935 22.9468 25.01 22.9468 23.9201Z" fill="#8E98A8"/>
<path d="M28.8669 23.9201C28.8669 22.8302 29.7504 21.9467 30.8403 21.9467C31.9302 21.9467 32.8137 22.8302 32.8137 23.9201C32.8137 25.01 31.9302 25.8935 30.8403 25.8935C29.7504 25.8935 28.8669 25.01 28.8669 23.9201Z" fill="#8E98A8"/>
</svg>
