<svg width="60" height="60" viewBox="0 0 60 60" fill="none" xmlns="http://www.w3.org/2000/svg">
<path d="M41.875 5C44.0299 5 46.0965 5.85602 47.6202 7.37976C49.144 8.90349 50 10.9701 50 13.125V41.875C50 44.0299 49.144 46.0965 47.6202 47.6202C46.0965 49.144 44.0299 50 41.875 50H29.4C29.815 49.045 30.01 48.0325 30.01 47.0325C30.01 46.7675 29.9933 46.5067 29.96 46.25H41.875C43.0353 46.25 44.1481 45.7891 44.9686 44.9686C45.7891 44.1481 46.25 43.0353 46.25 41.875V13.125C46.25 11.9647 45.7891 10.8519 44.9686 10.0314C44.1481 9.21094 43.0353 8.75 41.875 8.75H13.125C11.9647 8.75 10.8519 9.21094 10.0314 10.0314C9.21094 10.8519 8.75 11.9647 8.75 13.125V26.275C7.41512 26.3714 6.12576 26.8012 5 27.525V13.125C5 10.9701 5.85602 8.90349 7.37976 7.37976C8.90349 5.85602 10.9701 5 13.125 5H41.875ZM26.875 12.5C27.3281 12.5 27.7659 12.6641 28.1073 12.9619C28.4488 13.2597 28.6709 13.6711 28.7325 14.12L28.75 14.375V27.5H38.12C38.5951 27.5001 39.0524 27.6806 39.3995 28.0049C39.7466 28.3293 39.9577 28.7732 39.9901 29.2472C40.0224 29.7212 39.8737 30.1897 39.5739 30.5582C39.2741 30.9268 38.8456 31.1677 38.375 31.2325L38.12 31.25H26.875C26.4219 31.25 25.9841 31.0859 25.6427 30.7881C25.3012 30.4903 25.0791 30.0789 25.0175 29.63L25 29.375V14.375C25 13.8777 25.1975 13.4008 25.5492 13.0492C25.9008 12.6975 26.3777 12.5 26.875 12.5ZM9.375 40C10.8668 40 12.2976 39.4074 13.3525 38.3525C14.4074 37.2976 15 35.8668 15 34.375C15 32.8832 14.4074 31.4524 13.3525 30.3975C12.2976 29.3426 10.8668 28.75 9.375 28.75C7.88316 28.75 6.45242 29.3426 5.39752 30.3975C4.34263 31.4524 3.75 32.8832 3.75 34.375C3.75 35.8668 4.34263 37.2976 5.39752 38.3525C6.45242 39.4074 7.88316 40 9.375 40ZM9.375 55C16.0725 55 18.75 51.0775 18.75 47.1875C18.75 44.6 16.95 42.5 14.7325 42.5H4.0175C1.8 42.5 0 44.6 0 47.1875C0 51.0925 2.6775 55 9.375 55ZM26.25 36.875C26.25 38.0353 25.7891 39.1481 24.9686 39.9686C24.1481 40.7891 23.0353 41.25 21.875 41.25C20.7147 41.25 19.6019 40.7891 18.7814 39.9686C17.9609 39.1481 17.5 38.0353 17.5 36.875C17.5 35.7147 17.9609 34.6019 18.7814 33.7814C19.6019 32.9609 20.7147 32.5 21.875 32.5C23.0353 32.5 24.1481 32.9609 24.9686 33.7814C25.7891 34.6019 26.25 35.7147 26.25 36.875ZM19.79 52.5C20.8 50.85 21.245 48.9875 21.245 47.1875C21.2427 45.9958 20.9691 44.8203 20.445 43.75H24.295C26.07 43.75 27.51 45.22 27.51 47.0325C27.51 49.7575 25.3675 52.5 20.01 52.5H19.79Z" fill="#3E4642"/>
</svg>
