<svg width="60" height="60" viewBox="0 0 60 60" fill="none" xmlns="http://www.w3.org/2000/svg">
<path d="M5 52.5C3.625 52.5 2.44833 52.0108 1.47 51.0325C0.491667 50.0542 0.00166667 48.8767 0 47.5V20C0 18.625 0.49 17.4483 1.47 16.47C2.45 15.4917 3.62667 15.0017 5 15H15V10C15 8.625 15.49 7.44833 16.47 6.47C17.45 5.49167 18.6267 5.00167 20 5H30C31.375 5 32.5525 5.49 33.5325 6.47C34.5125 7.45 35.0017 8.62667 35 10V15H45C46.375 15 47.5525 15.49 48.5325 16.47C49.5125 17.45 50.0017 18.6267 50 20V27.5C50 28.2083 49.76 28.7917 49.28 29.25C48.8 29.7083 48.2067 29.9375 47.5 29.9375C46.7933 29.9375 46.2 29.6983 45.72 29.22C45.24 28.7417 45 28.1475 45 27.4375V20H5V47.5H21.25C21.9583 47.5 22.5525 47.74 23.0325 48.22C23.5125 48.7 23.7517 49.2933 23.75 50C23.7483 50.7067 23.5083 51.3008 23.03 51.7825C22.5517 52.2642 21.9583 52.5033 21.25 52.5H5ZM20 15H30V10H20V15ZM31.1575 53.845C28.7192 51.4067 27.5 48.4583 27.5 45C27.5 41.5417 28.7192 38.5942 31.1575 36.1575C33.5958 33.7208 36.5433 32.5017 40 32.5C43.4567 32.4983 46.405 33.7175 48.845 36.1575C51.285 38.5975 52.5033 41.545 52.5 45C52.4967 48.455 51.2775 51.4033 48.8425 53.845C46.4075 56.2867 43.46 57.505 40 57.5C36.54 57.495 33.5925 56.2783 31.1575 53.845ZM41.25 44.5V38.75C41.25 38.4167 41.125 38.125 40.875 37.875C40.625 37.625 40.3333 37.5 40 37.5C39.6667 37.5 39.375 37.625 39.125 37.875C38.875 38.125 38.75 38.4167 38.75 38.75V44.4375C38.75 44.7708 38.8125 45.0942 38.9375 45.4075C39.0625 45.7208 39.25 46.0017 39.5 46.25L43.25 50C43.5 50.25 43.7917 50.375 44.125 50.375C44.4583 50.375 44.75 50.25 45 50C45.25 49.75 45.375 49.4583 45.375 49.125C45.375 48.7917 45.25 48.5 45 48.25L41.25 44.5Z" fill="#3E4642"/>
</svg>
