<svg width="85" height="59" viewBox="0 0 85 59" fill="none" xmlns="http://www.w3.org/2000/svg">
<path d="M78.6112 0H2C0.895431 0 0 0.89543 0 2V55.1772C0 56.7916 1.81418 57.7407 3.14044 56.8202L79.7516 3.64299C81.3613 2.52566 80.5707 0 78.6112 0Z" fill="#F3F5F4"/>
<path d="M46.832 29.5007C45.6862 29.5007 44.6191 29.7156 43.6309 30.1453C42.6426 30.575 41.7689 31.1622 41.0098 31.907C40.2507 32.6518 39.6562 33.5326 39.2266 34.5496C38.7969 35.5665 38.582 36.6335 38.582 37.7507C38.582 39.0684 38.2884 40.3074 37.7012 41.4675C37.1139 42.6277 36.2904 43.6016 35.2305 44.3894C36.1615 44.8621 36.9993 45.4421 37.7441 46.1296C38.4889 46.8171 39.1335 47.5906 39.6777 48.45C40.222 49.3093 40.6302 50.226 40.9023 51.2C41.1745 52.1739 41.3177 53.1908 41.332 54.2507H38.582C38.582 53.1192 38.3672 52.0522 37.9375 51.0496C37.5078 50.047 36.9206 49.1733 36.1758 48.4285C35.431 47.6837 34.5501 47.0893 33.5332 46.6453C32.5163 46.2013 31.4492 45.9864 30.332 46.0007C29.1862 46.0007 28.1191 46.2156 27.1309 46.6453C26.1426 47.075 25.2689 47.6622 24.5098 48.407C23.7507 49.1518 23.1562 50.0326 22.7266 51.0496C22.2969 52.0665 22.082 53.1335 22.082 54.2507H19.332C19.332 53.2052 19.4753 52.1954 19.7617 51.2214C20.0482 50.2475 20.4564 49.3308 20.9863 48.4714C21.5163 47.6121 22.1536 46.8386 22.8984 46.1511C23.6432 45.4636 24.4883 44.8764 25.4336 44.3894C24.3737 43.6016 23.5501 42.6277 22.9629 41.4675C22.3757 40.3074 22.082 39.0684 22.082 37.7507C22.082 36.6192 22.2969 35.5522 22.7266 34.5496C23.1562 33.547 23.7435 32.6733 24.4883 31.9285C25.2331 31.1837 26.1068 30.5893 27.1094 30.1453C28.112 29.7013 29.1862 29.4864 30.332 29.5007C31.6497 29.5007 32.8887 29.7944 34.0488 30.3816C35.209 30.9688 36.1829 31.7924 36.9707 32.8523C37.515 31.7781 38.2096 30.8184 39.0547 29.9734C39.8997 29.1283 40.8594 28.4337 41.9336 27.8894C40.8737 27.1016 40.0501 26.1277 39.4629 24.9675C38.8757 23.8074 38.582 22.5684 38.582 21.2507C38.582 20.1192 38.7969 19.0522 39.2266 18.0496C39.6562 17.047 40.2435 16.1733 40.9883 15.4285C41.7331 14.6837 42.6068 14.0893 43.6094 13.6453C44.612 13.2013 45.6862 12.9864 46.832 13.0007C47.9635 13.0007 49.0306 13.2156 50.0332 13.6453C51.0358 14.075 51.9095 14.6622 52.6543 15.407C53.3991 16.1518 53.9935 17.0326 54.4375 18.0496C54.8815 19.0665 55.0964 20.1335 55.082 21.2507C55.082 22.5684 54.7884 23.8074 54.2012 24.9675C53.6139 26.1277 52.7904 27.1016 51.7305 27.8894C52.6615 28.3621 53.4993 28.9421 54.2441 29.6296C54.9889 30.3171 55.6335 31.0906 56.1777 31.95C56.722 32.8093 57.1302 33.726 57.4023 34.7C57.6745 35.6739 57.8177 36.6908 57.832 37.7507H55.082C55.082 36.6192 54.8672 35.5522 54.4375 34.5496C54.0078 33.547 53.4206 32.6733 52.6758 31.9285C51.931 31.1837 51.0501 30.5893 50.0332 30.1453C49.0163 29.7013 47.9492 29.4864 46.832 29.5007ZM41.332 21.2507C41.332 22.0098 41.4753 22.7188 41.7617 23.3777C42.0482 24.0365 42.4421 24.6238 42.9434 25.1394C43.4447 25.655 44.0247 26.0489 44.6836 26.321C45.3424 26.5932 46.0586 26.7364 46.832 26.7507C47.5911 26.7507 48.3001 26.6075 48.959 26.321C49.6178 26.0346 50.2051 25.6407 50.7207 25.1394C51.2363 24.6381 51.6302 24.058 51.9023 23.3992C52.1745 22.7403 52.3177 22.0242 52.332 21.2507C52.332 20.4916 52.1888 19.7826 51.9023 19.1238C51.6159 18.4649 51.222 17.8777 50.7207 17.3621C50.2194 16.8464 49.6393 16.4526 48.9805 16.1804C48.3216 15.9083 47.6055 15.7651 46.832 15.7507C46.0729 15.7507 45.3639 15.894 44.7051 16.1804C44.0462 16.4669 43.459 16.8608 42.9434 17.3621C42.4277 17.8634 42.0339 18.4434 41.7617 19.1023C41.4896 19.7611 41.3464 20.4773 41.332 21.2507ZM30.332 43.2507C31.0911 43.2507 31.8001 43.1075 32.459 42.821C33.1178 42.5346 33.7051 42.1407 34.2207 41.6394C34.7363 41.1381 35.1302 40.558 35.4023 39.8992C35.6745 39.2403 35.8177 38.5242 35.832 37.7507C35.832 36.9916 35.6888 36.2826 35.4023 35.6238C35.1159 34.9649 34.722 34.3777 34.2207 33.8621C33.7194 33.3464 33.1393 32.9526 32.4805 32.6804C31.8216 32.4083 31.1055 32.2651 30.332 32.2507C29.5729 32.2507 28.8639 32.394 28.2051 32.6804C27.5462 32.9669 26.959 33.3608 26.4434 33.8621C25.9277 34.3634 25.5339 34.9434 25.2617 35.6023C24.9896 36.2611 24.8464 36.9773 24.832 37.7507C24.832 38.5098 24.9753 39.2188 25.2617 39.8777C25.5482 40.5365 25.9421 41.1238 26.4434 41.6394C26.9447 42.155 27.5247 42.5489 28.1836 42.821C28.8424 43.0932 29.5586 43.2364 30.332 43.2507ZM63.332 48.7507H57.832V54.2507H55.082V48.7507H49.582V46.0007H55.082V40.5007H57.832V46.0007H63.332V48.7507Z" fill="#8E98A8"/>
</svg>
