<svg width="46" height="44" viewBox="0 0 46 44" fill="none" xmlns="http://www.w3.org/2000/svg">
<path d="M1.375 14.0001C1.375 8.34403 1.375 5.51402 3.13301 3.75801C4.88902 2 7.71903 2 13.3751 2H21.3751C27.0311 2 29.8611 2 31.6172 3.75801C33.3752 5.51402 33.3752 8.34403 33.3752 14.0001V30.0001C33.3752 35.6562 33.3752 38.4862 31.6172 40.2422C29.8611 42.0002 27.0311 42.0002 21.3751 42.0002H13.3751C7.71903 42.0002 4.88902 42.0002 3.13301 40.2422C1.375 38.4862 1.375 35.6562 1.375 30.0001V14.0001Z" stroke="#3E4642" stroke-width="2.75"/>
<path d="M33.1712 30.0002H9.17104C7.31103 30.0002 6.38103 30.0002 5.61702 30.2042C4.59964 30.477 3.672 31.0128 2.92736 31.7578C2.18273 32.5028 1.64733 33.4307 1.375 34.4482" stroke="#3E4642" stroke-width="2.75"/>
<path d="M9.375 12.0001H25.3751M9.375 19.0002H19.3751" stroke="#3E4642" stroke-width="2.75" stroke-linecap="round"/>
</svg>
