<svg width="45" height="44" viewBox="0 0 45 44" fill="none" xmlns="http://www.w3.org/2000/svg">
<path fill-rule="evenodd" clip-rule="evenodd" d="M1.57798 11.275C1.10616 11.4969 0.707229 11.8485 0.427805 12.2887C0.14838 12.7289 0 13.2396 0 13.761C0 14.2824 0.14838 14.793 0.427805 15.2332C0.707229 15.6734 1.10616 16.0251 1.57798 16.247L5.51048 18.1032V28.8832C5.51048 30.9237 6.17323 33.2007 8.10648 34.6032C10.543 36.3632 14.9815 38.5082 22.0215 38.5082C29.0615 38.5082 33.489 36.3495 35.9365 34.6032C37.8697 33.2062 38.5325 30.9457 38.5325 28.8832V18.1032L41.2825 16.8025V28.875C41.2825 29.2396 41.4273 29.5894 41.6852 29.8472C41.9431 30.1051 42.2928 30.25 42.6575 30.25C43.0222 30.25 43.3719 30.1051 43.6298 29.8472C43.8876 29.5894 44.0325 29.2396 44.0325 28.875V13.75C44.0326 13.2292 43.8848 12.719 43.6064 12.279C43.3279 11.8389 42.9302 11.4869 42.4595 11.264L26.7295 3.83897C25.2593 3.14374 23.6533 2.78314 22.027 2.78314C20.4007 2.78314 18.7947 3.14374 17.3245 3.83897L1.59448 11.264L1.57798 11.275ZM8.26048 28.875V19.3875L17.308 23.6775C18.7782 24.3727 20.3842 24.7333 22.0105 24.7333C23.6368 24.7333 25.2428 24.3727 26.713 23.6775L35.7605 19.3875V28.875C35.7605 30.404 35.2655 31.6525 34.303 32.34C32.312 33.7782 28.4455 35.75 22.0105 35.75C15.5755 35.75 11.698 33.792 9.71798 32.34C8.75823 31.647 8.26048 30.3902 8.26048 28.875ZM18.4905 6.32497C19.5907 5.80378 20.793 5.53343 22.0105 5.53343C23.2279 5.53343 24.4302 5.80378 25.5305 6.32497L41.2605 13.75L25.5305 21.175C24.4302 21.6962 23.2279 21.9665 22.0105 21.9665C20.793 21.9665 19.5907 21.6962 18.4905 21.175L2.76048 13.75L18.4905 6.32497Z" fill="#3E4642"/>
</svg>
