<svg width="60" height="60" viewBox="0 0 60 60" fill="none" xmlns="http://www.w3.org/2000/svg">
<g clip-path="url(#clip0_403_627)">
<path d="M4.68506 44.0625C4.68506 45.803 5.37646 47.4722 6.60717 48.7029C7.83788 49.9336 9.50708 50.625 11.2476 50.625C12.988 50.625 14.6572 49.9336 15.8879 48.7029C17.1187 47.4722 17.8101 45.803 17.8101 44.0625C17.8101 42.322 17.1187 40.6528 15.8879 39.4221C14.6572 38.1914 12.988 37.5 11.2476 37.5C9.50708 37.5 7.83788 38.1914 6.60717 39.4221C5.37646 40.6528 4.68506 42.322 4.68506 44.0625Z" stroke="#3E4642" stroke-width="4" stroke-linecap="round" stroke-linejoin="round"/>
<path d="M20.6226 58.125C19.7163 56.4258 18.3654 55.0049 16.7141 54.0141C15.0628 53.0234 13.1733 52.5 11.2476 52.5C9.32184 52.5 7.43233 53.0234 5.78104 54.0141C4.12975 55.0049 2.77878 56.4258 1.87256 58.125M42.1851 44.0625C42.1851 44.9243 42.3548 45.7777 42.6846 46.5739C43.0144 47.3701 43.4978 48.0935 44.1072 48.7029C44.7166 49.3123 45.44 49.7957 46.2362 50.1255C47.0324 50.4553 47.8858 50.625 48.7476 50.625C49.6094 50.625 50.4627 50.4553 51.2589 50.1255C52.0551 49.7957 52.7786 49.3123 53.3879 48.7029C53.9973 48.0935 54.4807 47.3701 54.8105 46.5739C55.1403 45.7777 55.3101 44.9243 55.3101 44.0625C55.3101 42.322 54.6187 40.6528 53.3879 39.4221C52.1572 38.1914 50.488 37.5 48.7476 37.5C47.0071 37.5 45.3379 38.1914 44.1072 39.4221C42.8765 40.6528 42.1851 42.322 42.1851 44.0625Z" stroke="#3E4642" stroke-width="4" stroke-linecap="round" stroke-linejoin="round"/>
<path d="M58.1226 58.125C57.2164 56.4258 55.8654 55.0049 54.2141 54.0141C52.5628 53.0234 50.6733 52.5 48.7476 52.5C46.8219 52.5 44.9324 53.0234 43.2811 54.0141C41.6298 55.0049 40.2788 56.4258 39.3726 58.125M38.1201 20.625C37.118 19.449 35.8725 18.5046 34.4697 17.8569C33.0669 17.2093 31.5402 16.8739 29.9951 16.8739C28.45 16.8739 26.9234 17.2093 25.5206 17.8569C24.1178 18.5046 22.8723 19.449 21.8701 20.625M22.6251 49.2675C27.4133 51.0922 32.7081 51.0762 37.4851 49.2225M15.8701 15C13.8181 16.9225 12.1824 19.2457 11.0643 21.8258C9.9463 24.4059 9.36966 27.1881 9.37012 30C9.37012 30.6325 9.40762 31.25 9.46512 31.875M50.5276 31.875C50.5826 31.255 50.6226 30.625 50.6226 30C50.6231 27.1881 50.0464 24.4059 48.9284 21.8258C47.8103 19.2457 46.1747 16.9225 44.1226 15M23.4351 8.4375C23.4351 9.2993 23.6049 10.1527 23.9347 10.9489C24.2645 11.7451 24.7478 12.4685 25.3572 13.0779C25.9666 13.6873 26.6901 14.1707 27.4863 14.5005C28.2825 14.8303 29.1358 15 29.9976 15C30.8594 15 31.7128 14.8303 32.509 14.5005C33.3052 14.1707 34.0286 13.6873 34.638 13.0779C35.2474 12.4685 35.7308 11.7451 36.0606 10.9489C36.3904 10.1527 36.5601 9.2993 36.5601 8.4375C36.5601 6.69702 35.8687 5.02782 34.638 3.79711C33.4073 2.5664 31.7381 1.875 29.9976 1.875C28.2571 1.875 26.5879 2.5664 25.3572 3.79711C24.1265 5.02782 23.4351 6.69702 23.4351 8.4375Z" stroke="#3E4642" stroke-width="4" stroke-linecap="round" stroke-linejoin="round"/>
</g>
<defs>
<clipPath id="clip0_403_627">
<rect width="60" height="60" fill="white"/>
</clipPath>
</defs>
</svg>
