<svg width="85" height="59" viewBox="0 0 85 59" fill="none" xmlns="http://www.w3.org/2000/svg">
<path d="M78.6112 0H2C0.895431 0 0 0.89543 0 2V55.1772C0 56.7916 1.81418 57.7407 3.14044 56.8202L79.7516 3.64299C81.3613 2.52566 80.5707 0 78.6112 0Z" fill="#F3F5F4"/>
<path d="M33.682 23.3222C33.2444 23.3222 32.8247 23.4969 32.5153 23.8078C32.2059 24.1187 32.032 24.5404 32.032 24.9801C32.032 25.4198 32.2059 25.8415 32.5153 26.1524C32.8247 26.4633 33.2444 26.638 33.682 26.638H50.182C50.6196 26.638 51.0393 26.4633 51.3488 26.1524C51.6582 25.8415 51.832 25.4198 51.832 24.9801C51.832 24.5404 51.6582 24.1187 51.3488 23.8078C51.0393 23.4969 50.6196 23.3222 50.182 23.3222H33.682ZM29.832 33.8222C29.832 33.3825 30.0059 32.9608 30.3153 32.6499C30.6247 32.339 31.0444 32.1643 31.482 32.1643H45.782C46.2196 32.1643 46.6393 32.339 46.9488 32.6499C47.2582 32.9608 47.432 33.3825 47.432 33.8222C47.432 34.2619 47.2582 34.6836 46.9488 34.9945C46.6393 35.3054 46.2196 35.4801 45.782 35.4801H31.482C31.0444 35.4801 30.6247 35.3054 30.3153 34.9945C30.0059 34.6836 29.832 34.2619 29.832 33.8222ZM35.882 41.0064C35.4444 41.0064 35.0247 41.1811 34.7153 41.492C34.4059 41.8029 34.232 42.2246 34.232 42.6643C34.232 43.104 34.4059 43.5257 34.7153 43.8366C35.0247 44.1475 35.4444 44.3222 35.882 44.3222H50.182C50.6196 44.3222 51.0393 44.1475 51.3488 43.8366C51.6582 43.5257 51.832 43.104 51.832 42.6643C51.832 42.2246 51.6582 41.8029 51.3488 41.492C51.0393 41.1811 50.6196 41.0064 50.182 41.0064H35.882Z" fill="#8E98A8"/>
<path d="M19.832 16.0847C19.832 14.0078 21.5176 12.3222 23.5945 12.3222H59.0695C61.1464 12.3222 62.832 14.0078 62.832 16.0847V51.5597C62.832 52.5576 62.4356 53.5146 61.73 54.2202C61.0244 54.9258 60.0674 55.3222 59.0695 55.3222H23.5945C22.5967 55.3222 21.6396 54.9258 20.934 54.2202C20.2284 53.5146 19.832 52.5576 19.832 51.5597V16.0847ZM23.5945 15.5472C23.452 15.5472 23.3153 15.6038 23.2145 15.7046C23.1137 15.8054 23.057 15.9422 23.057 16.0847V51.5597C23.057 51.8564 23.2978 52.0972 23.5945 52.0972H59.0695C59.2121 52.0972 59.3488 52.0406 59.4496 51.9398C59.5504 51.839 59.607 51.7023 59.607 51.5597V16.0847C59.607 15.9422 59.5504 15.8054 59.4496 15.7046C59.3488 15.6038 59.2121 15.5472 59.0695 15.5472H23.5945Z" fill="#8E98A8"/>
</svg>
