<svg width="85" height="59" viewBox="0 0 85 59" fill="none" xmlns="http://www.w3.org/2000/svg">
<path d="M78.6112 0H2C0.895431 0 0 0.89543 0 2V55.1772C0 56.7916 1.81418 57.7407 3.14044 56.8202L79.7516 3.64299C81.3613 2.52566 80.5707 0 78.6112 0Z" fill="#F3F5F4"/>
<path d="M36.4161 39.3222V48.4889C36.4161 48.4889 41.9711 47.4805 43.7494 44.8222C45.7294 41.8522 43.7494 35.6555 43.7494 35.6555M22.6661 42.0722C19.9161 44.3822 18.9994 51.2389 18.9994 51.2389C18.9994 51.2389 25.8561 50.3222 28.1661 47.5722C29.4677 46.0322 29.4494 43.6672 28.0011 42.2372C27.2885 41.557 26.3498 41.164 25.3651 41.1336C24.3805 41.1031 23.4193 41.4374 22.6661 42.0722Z" stroke="#8E98A8" stroke-width="3" stroke-linecap="round" stroke-linejoin="round"/>
<path d="M30.916 33.8222C31.8916 31.2911 33.1201 28.865 34.5827 26.5805C36.7188 23.165 39.6933 20.3528 43.2232 18.4114C46.753 16.4699 50.7209 15.4639 54.7493 15.4889C54.7493 20.4755 53.3193 29.2389 43.7493 35.6555C41.4333 37.1193 38.9767 38.3477 36.416 39.3222L30.916 33.8222Z" stroke="#8E98A8" stroke-width="3" stroke-linecap="round" stroke-linejoin="round"/>
<path d="M30.9161 33.8222H21.7494C21.7494 33.8222 22.7577 28.2672 25.4161 26.4889C28.3861 24.5089 34.5827 26.5805 34.5827 26.5805" stroke="#8E98A8" stroke-width="3" stroke-linecap="round" stroke-linejoin="round"/>
</svg>
