<svg width="85" height="59" viewBox="0 0 85 59" fill="none" xmlns="http://www.w3.org/2000/svg">
<path d="M78.6112 0H2C0.895431 0 0 0.89543 0 2V55.1772C0 56.7916 1.81418 57.7407 3.14044 56.8202L79.7516 3.64299C81.3613 2.52566 80.5707 0 78.6112 0Z" fill="#F3F5F4"/>
<path d="M56 18.8223C56 18.0266 55.6839 17.2636 55.1213 16.7009C54.5587 16.1383 53.7956 15.8223 53 15.8223H48C47.4477 15.8223 47 15.3746 47 14.8223V13.8223C47 13.27 46.5523 12.8223 46 12.8223H45C44.4477 12.8223 44 13.27 44 13.8223V14.8223C44 15.3746 43.5523 15.8223 43 15.8223H33C32.4477 15.8223 32 15.3746 32 14.8223V13.8223C32 13.27 31.5523 12.8223 31 12.8223H30C29.4477 12.8223 29 13.27 29 13.8223V14.8223C29 15.3746 28.5523 15.8223 28 15.8223H23C22.2044 15.8223 21.4413 16.1383 20.8787 16.7009C20.3161 17.2636 20 18.0266 20 18.8223V48.8223C20 49.6179 20.3161 50.381 20.8787 50.9436C21.4413 51.5062 22.2044 51.8223 23 51.8223H28C28.5523 51.8223 29 51.3746 29 50.8223V49.8223C29 49.27 28.5523 48.8223 28 48.8223H24C23.4477 48.8223 23 48.3746 23 47.8223V19.8223C23 19.27 23.4477 18.8223 24 18.8223H28C28.5523 18.8223 29 19.27 29 19.8223V20.8223C29 21.3746 29.4477 21.8223 30 21.8223H31C31.5523 21.8223 32 21.3746 32 20.8223V19.8223C32 19.27 32.4477 18.8223 33 18.8223H43C43.5523 18.8223 44 19.27 44 19.8223V20.8223C44 21.3746 44.4477 21.8223 45 21.8223H46C46.5523 21.8223 47 21.3746 47 20.8223V19.8223C47 19.27 47.4477 18.8223 48 18.8223H52C52.5523 18.8223 53 19.27 53 19.8223V26.8223C53 27.3746 53.4477 27.8223 54 27.8223H55C55.5523 27.8223 56 27.3746 56 26.8223V18.8223Z" fill="#8E98A8"/>
<path d="M45.1239 33.6649C45.4809 32.914 46.5449 32.9014 46.9197 33.6435L49.59 38.9315C49.7364 39.2214 50.0146 39.4222 50.3359 39.4699L56.0129 40.312C56.8296 40.4331 57.1559 41.4359 56.5669 42.0145L52.3771 46.1304C52.1412 46.3622 52.0351 46.6956 52.0938 47.0212L53.1374 52.8106C53.285 53.6294 52.4263 54.2599 51.6892 53.8738L46.464 51.1369C46.1734 50.9847 45.8266 50.9847 45.536 51.1369L40.3108 53.8738C39.5737 54.2599 38.715 53.6294 38.8626 52.8106L39.9062 47.0212C39.9649 46.6956 39.8588 46.3622 39.6229 46.1304L35.44 42.0214C34.8498 41.4415 35.179 40.4365 35.9979 40.3183L41.8698 39.4704C42.201 39.4226 42.4863 39.2123 42.63 38.9101L45.1239 33.6649Z" fill="#8E98A8"/>
</svg>
