<svg width="85" height="59" viewBox="0 0 85 59" fill="none" xmlns="http://www.w3.org/2000/svg">
<path d="M78.6112 0H2C0.895431 0 0 0.89543 0 2V55.1772C0 56.7916 1.81418 57.7407 3.14044 56.8202L79.7516 3.64299C81.3613 2.52566 80.5707 0 78.6112 0Z" fill="#F3F5F4"/>
<path d="M37.3333 50.5083C37.3333 49.6662 37.0538 48.8337 36.4948 48.0107C35.9358 47.1876 35.3126 46.3273 34.625 45.4296C33.9374 44.5319 33.3149 43.5983 32.7573 42.6288C32.1998 41.6593 31.9196 40.6247 31.9167 39.5249C31.9167 37.4014 32.6569 35.5892 34.1375 34.0881C35.6181 32.5871 37.4056 31.8365 39.5 31.8365C41.5944 31.8365 43.3819 32.5871 44.8625 34.0881C46.3431 35.5892 47.0833 37.4014 47.0833 39.5249C47.0833 40.6232 46.8038 41.6579 46.2448 42.6288C45.6858 43.5997 45.0626 44.5326 44.375 45.4274C43.6874 46.3222 43.0649 47.1825 42.5073 48.0085C41.9498 48.8344 41.6696 49.6677 41.6667 50.5083H37.3333ZM37.9573 55.3695C37.5413 54.9478 37.3333 54.4257 37.3333 53.8033V52.705H41.6667V53.8033C41.6667 54.4257 41.4587 54.9478 41.0427 55.3695C40.6267 55.7913 40.1124 56.0015 39.5 56C38.8876 55.9985 38.3733 55.7898 37.9573 55.3695ZM52.5 49.41C52.175 49.0805 51.9858 48.6594 51.9323 48.1469C51.8789 47.6343 51.9959 47.1767 52.2833 46.7739C53.0417 45.5658 53.6288 44.2573 54.0448 42.8485C54.4608 41.4397 54.6681 39.9657 54.6667 38.4266C54.6667 36.4129 54.3142 34.5179 53.6093 32.7416C52.9044 30.9652 51.9208 29.3821 50.6583 27.9923C50.2611 27.5164 50.0538 26.995 50.0365 26.4283C50.0192 25.8616 50.2264 25.3578 50.6583 24.917C51.0902 24.4762 51.6138 24.2565 52.2292 24.258C52.8445 24.2594 53.3501 24.4791 53.7458 24.917C55.3708 26.6743 56.6528 28.7063 57.5917 31.0128C58.5306 33.3193 59 35.7905 59 38.4266C59 40.4036 58.7292 42.2986 58.1875 44.1116C57.6458 45.9246 56.8875 47.5992 55.9125 49.1354C55.5153 49.7578 54.9736 50.0873 54.2875 50.1239C53.6014 50.1605 53.0056 49.9225 52.5 49.41ZM23.0875 49.1354C22.1125 47.5977 21.3542 45.9231 20.8125 44.1116C20.2708 42.3 20 40.405 20 38.4266C20 32.9349 21.8958 28.2669 25.6875 24.4227C29.4792 20.5785 34.0833 18.6564 39.5 18.6564H39.9333L37.9833 16.6794C37.5861 16.2767 37.3875 15.7642 37.3875 15.1418C37.3875 14.5194 37.5861 14.0068 37.9833 13.6041C38.3806 13.2014 38.8861 13 39.5 13C40.1139 13 40.6194 13.2014 41.0167 13.6041L46.65 19.3155C46.8667 19.5351 47.0198 19.7731 47.1093 20.0294C47.1989 20.2857 47.2444 20.5602 47.2458 20.8531C47.2473 21.146 47.2018 21.4206 47.1093 21.6769C47.0169 21.9332 46.8638 22.1711 46.65 22.3908L41.0167 28.1022C40.5833 28.5415 40.0778 28.7524 39.5 28.7348C38.9222 28.7172 38.4167 28.4881 37.9833 28.0472C37.55 27.6064 37.3333 27.0851 37.3333 26.4832C37.3333 25.8813 37.55 25.3592 37.9833 24.917L39.825 23.0498H39.5C35.3111 23.0498 31.7361 24.5509 28.775 27.553C25.8139 30.5551 24.3333 34.1796 24.3333 38.4266C24.3333 39.9642 24.5413 41.4382 24.9573 42.8485C25.3733 44.2587 25.9598 45.5672 26.7167 46.7739C27.0056 47.1767 27.1233 47.6343 27.0698 48.1469C27.0164 48.6594 26.8264 49.0805 26.5 49.41C25.9944 49.9225 25.3986 50.1605 24.7125 50.1239C24.0264 50.0873 23.4847 49.7578 23.0875 49.1354Z" fill="#8E98A8"/>
</svg>
