<svg width="60" height="60" viewBox="0 0 60 60" fill="none" xmlns="http://www.w3.org/2000/svg">
<path d="M13.125 20.625V35.625M24.225 30C23.765 27.2113 22.2723 24.698 20.0436 22.9598C17.8149 21.2217 15.0137 20.3861 12.197 20.6192C9.38027 20.8524 6.75452 22.1372 4.84197 24.2181C2.92942 26.2991 1.87021 29.0237 1.87502 31.85V39.35H5.62502L7.50002 58.125H18.75L20.625 39.375M28.125 45H58.125M43.125 45V50M37.5 35.625V32.5C37.5 31.0082 38.0926 29.5774 39.1475 28.5225C40.2024 27.4676 41.6332 26.875 43.125 26.875C44.6169 26.875 46.0476 27.4676 47.1025 28.5225C48.1574 29.5774 48.75 31.0082 48.75 32.5V35.625M5.62502 9.375C5.62502 11.3641 6.41519 13.2718 7.82172 14.6783C9.22824 16.0848 11.1359 16.875 13.125 16.875C15.1141 16.875 17.0218 16.0848 18.4283 14.6783C19.8348 13.2718 20.625 11.3641 20.625 9.375C20.625 7.38588 19.8348 5.47822 18.4283 4.0717C17.0218 2.66518 15.1141 1.875 13.125 1.875C11.1359 1.875 9.22824 2.66518 7.82172 4.0717C6.41519 5.47822 5.62502 7.38588 5.62502 9.375ZM30.625 35.625H55.625C55.625 35.625 58.125 35.625 58.125 38.125V55.625C58.125 55.625 58.125 58.125 55.625 58.125H30.625C30.625 58.125 28.125 58.125 28.125 55.625V38.125C28.125 38.125 28.125 35.625 30.625 35.625Z" stroke="#3E4642" stroke-width="3.75" stroke-linecap="round" stroke-linejoin="round"/>
</svg>
